<?xml version="1.0" encoding="UTF-8"?>
<svg xmlns="http://www.w3.org/2000/svg" xmlns:xlink="http://www.w3.org/1999/xlink" width="256pt" height="256pt" viewBox="0 0 256 256" version="1.1">
<defs>
<clipPath id="clip1">
  <path d="M 1 0 L 255 0 L 255 255 L 1 255 Z M 1 0 "/>
</clipPath>
<clipPath id="clip2">
  <path d="M 254.832031 128.128906 C 254.832031 198.390625 197.957031 255.351562 127.800781 255.351562 C 57.644531 255.351562 0.769531 198.390625 0.769531 128.128906 C 0.769531 57.867188 57.644531 0.90625 127.800781 0.90625 C 197.957031 0.90625 254.832031 57.867188 254.832031 128.128906 Z M 254.832031 128.128906 "/>
</clipPath>
<linearGradient id="linear0" gradientUnits="userSpaceOnUse" x1="-819.2" y1="0" x2="819.2" y2="0" gradientTransform="matrix(0,0.155626,-0.15533,0,128.928122,127.199523)">
<stop offset="0" style="stop-color:rgb(85.098039%,96.078431%,100%);stop-opacity:1;"/>
<stop offset="0.537255" style="stop-color:rgb(88.627451%,96.862745%,100%);stop-opacity:1;"/>
<stop offset="0.54902" style="stop-color:rgb(76.470588%,93.72549%,99.607843%);stop-opacity:1;"/>
<stop offset="1" style="stop-color:rgb(69.019608%,91.372549%,98.823529%);stop-opacity:1;"/>
</linearGradient>
<clipPath id="clip3">
  <path d="M 1 59 L 255 59 L 255 144 L 1 144 Z M 1 59 "/>
</clipPath>
<clipPath id="clip4">
  <path d="M 254.832031 128.128906 C 254.832031 198.390625 197.957031 255.351562 127.800781 255.351562 C 57.644531 255.351562 0.769531 198.390625 0.769531 128.128906 C 0.769531 57.867188 57.644531 0.90625 127.800781 0.90625 C 197.957031 0.90625 254.832031 57.867188 254.832031 128.128906 Z M 254.832031 128.128906 "/>
</clipPath>
<clipPath id="clip5">
  <path d="M 1 61 L 255 61 L 255 146 L 1 146 Z M 1 61 "/>
</clipPath>
<clipPath id="clip6">
  <path d="M 254.832031 128.128906 C 254.832031 198.390625 197.957031 255.351562 127.800781 255.351562 C 57.644531 255.351562 0.769531 198.390625 0.769531 128.128906 C 0.769531 57.867188 57.644531 0.90625 127.800781 0.90625 C 197.957031 0.90625 254.832031 57.867188 254.832031 128.128906 Z M 254.832031 128.128906 "/>
</clipPath>
<clipPath id="clip7">
  <path d="M 14 171 L 93 171 L 93 247 L 14 247 Z M 14 171 "/>
</clipPath>
<clipPath id="clip8">
  <path d="M 245.574219 128.210938 C 245.574219 193.40625 192.722656 246.257812 127.527344 246.257812 C 62.332031 246.257812 9.480469 193.40625 9.480469 128.210938 C 9.480469 63.015625 62.332031 10.164062 127.527344 10.164062 C 192.722656 10.164062 245.574219 63.015625 245.574219 128.210938 Z M 245.574219 128.210938 "/>
</clipPath>
<clipPath id="clip9">
  <path d="M 16 173 L 71 173 L 71 247 L 16 247 Z M 16 173 "/>
</clipPath>
<clipPath id="clip10">
  <path d="M 245.574219 128.210938 C 245.574219 193.40625 192.722656 246.257812 127.527344 246.257812 C 62.332031 246.257812 9.480469 193.40625 9.480469 128.210938 C 9.480469 63.015625 62.332031 10.164062 127.527344 10.164062 C 192.722656 10.164062 245.574219 63.015625 245.574219 128.210938 Z M 245.574219 128.210938 "/>
</clipPath>
<clipPath id="clip11">
  <path d="M 30 175 L 81 175 L 81 243 L 30 243 Z M 30 175 "/>
</clipPath>
<clipPath id="clip12">
  <path d="M 245.574219 128.210938 C 245.574219 193.40625 192.722656 246.257812 127.527344 246.257812 C 62.332031 246.257812 9.480469 193.40625 9.480469 128.210938 C 9.480469 63.015625 62.332031 10.164062 127.527344 10.164062 C 192.722656 10.164062 245.574219 63.015625 245.574219 128.210938 Z M 245.574219 128.210938 "/>
</clipPath>
<clipPath id="clip13">
  <path d="M 14 194 L 93 194 L 93 235 L 14 235 Z M 14 194 "/>
</clipPath>
<clipPath id="clip14">
  <path d="M 245.574219 128.210938 C 245.574219 193.40625 192.722656 246.257812 127.527344 246.257812 C 62.332031 246.257812 9.480469 193.40625 9.480469 128.210938 C 9.480469 63.015625 62.332031 10.164062 127.527344 10.164062 C 192.722656 10.164062 245.574219 63.015625 245.574219 128.210938 Z M 245.574219 128.210938 "/>
</clipPath>
<clipPath id="clip15">
  <path d="M 14 183 L 93 183 L 93 197 L 14 197 Z M 14 183 "/>
</clipPath>
<clipPath id="clip16">
  <path d="M 245.574219 128.210938 C 245.574219 193.40625 192.722656 246.257812 127.527344 246.257812 C 62.332031 246.257812 9.480469 193.40625 9.480469 128.210938 C 9.480469 63.015625 62.332031 10.164062 127.527344 10.164062 C 192.722656 10.164062 245.574219 63.015625 245.574219 128.210938 Z M 245.574219 128.210938 "/>
</clipPath>
<clipPath id="clip17">
  <path d="M 34 174 L 92 174 L 92 192 L 34 192 Z M 34 174 "/>
</clipPath>
<clipPath id="clip18">
  <path d="M 245.574219 128.210938 C 245.574219 193.40625 192.722656 246.257812 127.527344 246.257812 C 62.332031 246.257812 9.480469 193.40625 9.480469 128.210938 C 9.480469 63.015625 62.332031 10.164062 127.527344 10.164062 C 192.722656 10.164062 245.574219 63.015625 245.574219 128.210938 Z M 245.574219 128.210938 "/>
</clipPath>
<clipPath id="clip19">
  <path d="M 14 174 L 93 174 L 93 192 L 14 192 Z M 14 174 "/>
</clipPath>
<clipPath id="clip20">
  <path d="M 245.574219 128.210938 C 245.574219 193.40625 192.722656 246.257812 127.527344 246.257812 C 62.332031 246.257812 9.480469 193.40625 9.480469 128.210938 C 9.480469 63.015625 62.332031 10.164062 127.527344 10.164062 C 192.722656 10.164062 245.574219 63.015625 245.574219 128.210938 Z M 245.574219 128.210938 "/>
</clipPath>
<clipPath id="clip21">
  <path d="M 14 185 L 93 185 L 93 192 L 14 192 Z M 14 185 "/>
</clipPath>
<clipPath id="clip22">
  <path d="M 245.574219 128.210938 C 245.574219 193.40625 192.722656 246.257812 127.527344 246.257812 C 62.332031 246.257812 9.480469 193.40625 9.480469 128.210938 C 9.480469 63.015625 62.332031 10.164062 127.527344 10.164062 C 192.722656 10.164062 245.574219 63.015625 245.574219 128.210938 Z M 245.574219 128.210938 "/>
</clipPath>
<clipPath id="clip23">
  <path d="M 14 171 L 93 171 L 93 175 L 14 175 Z M 14 171 "/>
</clipPath>
<clipPath id="clip24">
  <path d="M 245.574219 128.210938 C 245.574219 193.40625 192.722656 246.257812 127.527344 246.257812 C 62.332031 246.257812 9.480469 193.40625 9.480469 128.210938 C 9.480469 63.015625 62.332031 10.164062 127.527344 10.164062 C 192.722656 10.164062 245.574219 63.015625 245.574219 128.210938 Z M 245.574219 128.210938 "/>
</clipPath>
<clipPath id="clip25">
  <path d="M 19 174 L 32 174 L 32 185 L 19 185 Z M 19 174 "/>
</clipPath>
<clipPath id="clip26">
  <path d="M 245.574219 128.210938 C 245.574219 193.40625 192.722656 246.257812 127.527344 246.257812 C 62.332031 246.257812 9.480469 193.40625 9.480469 128.210938 C 9.480469 63.015625 62.332031 10.164062 127.527344 10.164062 C 192.722656 10.164062 245.574219 63.015625 245.574219 128.210938 Z M 245.574219 128.210938 "/>
</clipPath>
<clipPath id="clip27">
  <path d="M 14 186 L 93 186 L 93 204 L 14 204 Z M 14 186 "/>
</clipPath>
<clipPath id="clip28">
  <path d="M 245.574219 128.210938 C 245.574219 193.40625 192.722656 246.257812 127.527344 246.257812 C 62.332031 246.257812 9.480469 193.40625 9.480469 128.210938 C 9.480469 63.015625 62.332031 10.164062 127.527344 10.164062 C 192.722656 10.164062 245.574219 63.015625 245.574219 128.210938 Z M 245.574219 128.210938 "/>
</clipPath>
<clipPath id="clip29">
  <path d="M 92 171 L 171 171 L 171 247 L 92 247 Z M 92 171 "/>
</clipPath>
<clipPath id="clip30">
  <path d="M 245.574219 128.210938 C 245.574219 193.40625 192.722656 246.257812 127.527344 246.257812 C 62.332031 246.257812 9.480469 193.40625 9.480469 128.210938 C 9.480469 63.015625 62.332031 10.164062 127.527344 10.164062 C 192.722656 10.164062 245.574219 63.015625 245.574219 128.210938 Z M 245.574219 128.210938 "/>
</clipPath>
<clipPath id="clip31">
  <path d="M 94 173 L 149 173 L 149 247 L 94 247 Z M 94 173 "/>
</clipPath>
<clipPath id="clip32">
  <path d="M 245.574219 128.210938 C 245.574219 193.40625 192.722656 246.257812 127.527344 246.257812 C 62.332031 246.257812 9.480469 193.40625 9.480469 128.210938 C 9.480469 63.015625 62.332031 10.164062 127.527344 10.164062 C 192.722656 10.164062 245.574219 63.015625 245.574219 128.210938 Z M 245.574219 128.210938 "/>
</clipPath>
<clipPath id="clip33">
  <path d="M 107 175 L 159 175 L 159 243 L 107 243 Z M 107 175 "/>
</clipPath>
<clipPath id="clip34">
  <path d="M 245.574219 128.210938 C 245.574219 193.40625 192.722656 246.257812 127.527344 246.257812 C 62.332031 246.257812 9.480469 193.40625 9.480469 128.210938 C 9.480469 63.015625 62.332031 10.164062 127.527344 10.164062 C 192.722656 10.164062 245.574219 63.015625 245.574219 128.210938 Z M 245.574219 128.210938 "/>
</clipPath>
<clipPath id="clip35">
  <path d="M 92 194 L 171 194 L 171 235 L 92 235 Z M 92 194 "/>
</clipPath>
<clipPath id="clip36">
  <path d="M 245.574219 128.210938 C 245.574219 193.40625 192.722656 246.257812 127.527344 246.257812 C 62.332031 246.257812 9.480469 193.40625 9.480469 128.210938 C 9.480469 63.015625 62.332031 10.164062 127.527344 10.164062 C 192.722656 10.164062 245.574219 63.015625 245.574219 128.210938 Z M 245.574219 128.210938 "/>
</clipPath>
<clipPath id="clip37">
  <path d="M 92 183 L 171 183 L 171 197 L 92 197 Z M 92 183 "/>
</clipPath>
<clipPath id="clip38">
  <path d="M 245.574219 128.210938 C 245.574219 193.40625 192.722656 246.257812 127.527344 246.257812 C 62.332031 246.257812 9.480469 193.40625 9.480469 128.210938 C 9.480469 63.015625 62.332031 10.164062 127.527344 10.164062 C 192.722656 10.164062 245.574219 63.015625 245.574219 128.210938 Z M 245.574219 128.210938 "/>
</clipPath>
<clipPath id="clip39">
  <path d="M 112 174 L 170 174 L 170 192 L 112 192 Z M 112 174 "/>
</clipPath>
<clipPath id="clip40">
  <path d="M 245.574219 128.210938 C 245.574219 193.40625 192.722656 246.257812 127.527344 246.257812 C 62.332031 246.257812 9.480469 193.40625 9.480469 128.210938 C 9.480469 63.015625 62.332031 10.164062 127.527344 10.164062 C 192.722656 10.164062 245.574219 63.015625 245.574219 128.210938 Z M 245.574219 128.210938 "/>
</clipPath>
<clipPath id="clip41">
  <path d="M 92 174 L 171 174 L 171 192 L 92 192 Z M 92 174 "/>
</clipPath>
<clipPath id="clip42">
  <path d="M 245.574219 128.210938 C 245.574219 193.40625 192.722656 246.257812 127.527344 246.257812 C 62.332031 246.257812 9.480469 193.40625 9.480469 128.210938 C 9.480469 63.015625 62.332031 10.164062 127.527344 10.164062 C 192.722656 10.164062 245.574219 63.015625 245.574219 128.210938 Z M 245.574219 128.210938 "/>
</clipPath>
<clipPath id="clip43">
  <path d="M 92 185 L 171 185 L 171 192 L 92 192 Z M 92 185 "/>
</clipPath>
<clipPath id="clip44">
  <path d="M 245.574219 128.210938 C 245.574219 193.40625 192.722656 246.257812 127.527344 246.257812 C 62.332031 246.257812 9.480469 193.40625 9.480469 128.210938 C 9.480469 63.015625 62.332031 10.164062 127.527344 10.164062 C 192.722656 10.164062 245.574219 63.015625 245.574219 128.210938 Z M 245.574219 128.210938 "/>
</clipPath>
<clipPath id="clip45">
  <path d="M 92 171 L 171 171 L 171 175 L 92 175 Z M 92 171 "/>
</clipPath>
<clipPath id="clip46">
  <path d="M 245.574219 128.210938 C 245.574219 193.40625 192.722656 246.257812 127.527344 246.257812 C 62.332031 246.257812 9.480469 193.40625 9.480469 128.210938 C 9.480469 63.015625 62.332031 10.164062 127.527344 10.164062 C 192.722656 10.164062 245.574219 63.015625 245.574219 128.210938 Z M 245.574219 128.210938 "/>
</clipPath>
<clipPath id="clip47">
  <path d="M 97 174 L 110 174 L 110 185 L 97 185 Z M 97 174 "/>
</clipPath>
<clipPath id="clip48">
  <path d="M 245.574219 128.210938 C 245.574219 193.40625 192.722656 246.257812 127.527344 246.257812 C 62.332031 246.257812 9.480469 193.40625 9.480469 128.210938 C 9.480469 63.015625 62.332031 10.164062 127.527344 10.164062 C 192.722656 10.164062 245.574219 63.015625 245.574219 128.210938 Z M 245.574219 128.210938 "/>
</clipPath>
<clipPath id="clip49">
  <path d="M 92 186 L 171 186 L 171 204 L 92 204 Z M 92 186 "/>
</clipPath>
<clipPath id="clip50">
  <path d="M 245.574219 128.210938 C 245.574219 193.40625 192.722656 246.257812 127.527344 246.257812 C 62.332031 246.257812 9.480469 193.40625 9.480469 128.210938 C 9.480469 63.015625 62.332031 10.164062 127.527344 10.164062 C 192.722656 10.164062 245.574219 63.015625 245.574219 128.210938 Z M 245.574219 128.210938 "/>
</clipPath>
<clipPath id="clip51">
  <path d="M 170 171 L 246 171 L 246 247 L 170 247 Z M 170 171 "/>
</clipPath>
<clipPath id="clip52">
  <path d="M 245.574219 128.210938 C 245.574219 193.40625 192.722656 246.257812 127.527344 246.257812 C 62.332031 246.257812 9.480469 193.40625 9.480469 128.210938 C 9.480469 63.015625 62.332031 10.164062 127.527344 10.164062 C 192.722656 10.164062 245.574219 63.015625 245.574219 128.210938 Z M 245.574219 128.210938 "/>
</clipPath>
<clipPath id="clip53">
  <path d="M 172 173 L 227 173 L 227 247 L 172 247 Z M 172 173 "/>
</clipPath>
<clipPath id="clip54">
  <path d="M 245.574219 128.210938 C 245.574219 193.40625 192.722656 246.257812 127.527344 246.257812 C 62.332031 246.257812 9.480469 193.40625 9.480469 128.210938 C 9.480469 63.015625 62.332031 10.164062 127.527344 10.164062 C 192.722656 10.164062 245.574219 63.015625 245.574219 128.210938 Z M 245.574219 128.210938 "/>
</clipPath>
<clipPath id="clip55">
  <path d="M 185 175 L 237 175 L 237 243 L 185 243 Z M 185 175 "/>
</clipPath>
<clipPath id="clip56">
  <path d="M 245.574219 128.210938 C 245.574219 193.40625 192.722656 246.257812 127.527344 246.257812 C 62.332031 246.257812 9.480469 193.40625 9.480469 128.210938 C 9.480469 63.015625 62.332031 10.164062 127.527344 10.164062 C 192.722656 10.164062 245.574219 63.015625 245.574219 128.210938 Z M 245.574219 128.210938 "/>
</clipPath>
<clipPath id="clip57">
  <path d="M 170 194 L 246 194 L 246 235 L 170 235 Z M 170 194 "/>
</clipPath>
<clipPath id="clip58">
  <path d="M 245.574219 128.210938 C 245.574219 193.40625 192.722656 246.257812 127.527344 246.257812 C 62.332031 246.257812 9.480469 193.40625 9.480469 128.210938 C 9.480469 63.015625 62.332031 10.164062 127.527344 10.164062 C 192.722656 10.164062 245.574219 63.015625 245.574219 128.210938 Z M 245.574219 128.210938 "/>
</clipPath>
<clipPath id="clip59">
  <path d="M 170 183 L 246 183 L 246 197 L 170 197 Z M 170 183 "/>
</clipPath>
<clipPath id="clip60">
  <path d="M 245.574219 128.210938 C 245.574219 193.40625 192.722656 246.257812 127.527344 246.257812 C 62.332031 246.257812 9.480469 193.40625 9.480469 128.210938 C 9.480469 63.015625 62.332031 10.164062 127.527344 10.164062 C 192.722656 10.164062 245.574219 63.015625 245.574219 128.210938 Z M 245.574219 128.210938 "/>
</clipPath>
<clipPath id="clip61">
  <path d="M 190 174 L 246 174 L 246 192 L 190 192 Z M 190 174 "/>
</clipPath>
<clipPath id="clip62">
  <path d="M 245.574219 128.210938 C 245.574219 193.40625 192.722656 246.257812 127.527344 246.257812 C 62.332031 246.257812 9.480469 193.40625 9.480469 128.210938 C 9.480469 63.015625 62.332031 10.164062 127.527344 10.164062 C 192.722656 10.164062 245.574219 63.015625 245.574219 128.210938 Z M 245.574219 128.210938 "/>
</clipPath>
<clipPath id="clip63">
  <path d="M 170 174 L 246 174 L 246 192 L 170 192 Z M 170 174 "/>
</clipPath>
<clipPath id="clip64">
  <path d="M 245.574219 128.210938 C 245.574219 193.40625 192.722656 246.257812 127.527344 246.257812 C 62.332031 246.257812 9.480469 193.40625 9.480469 128.210938 C 9.480469 63.015625 62.332031 10.164062 127.527344 10.164062 C 192.722656 10.164062 245.574219 63.015625 245.574219 128.210938 Z M 245.574219 128.210938 "/>
</clipPath>
<clipPath id="clip65">
  <path d="M 170 185 L 246 185 L 246 192 L 170 192 Z M 170 185 "/>
</clipPath>
<clipPath id="clip66">
  <path d="M 245.574219 128.210938 C 245.574219 193.40625 192.722656 246.257812 127.527344 246.257812 C 62.332031 246.257812 9.480469 193.40625 9.480469 128.210938 C 9.480469 63.015625 62.332031 10.164062 127.527344 10.164062 C 192.722656 10.164062 245.574219 63.015625 245.574219 128.210938 Z M 245.574219 128.210938 "/>
</clipPath>
<clipPath id="clip67">
  <path d="M 170 171 L 246 171 L 246 175 L 170 175 Z M 170 171 "/>
</clipPath>
<clipPath id="clip68">
  <path d="M 245.574219 128.210938 C 245.574219 193.40625 192.722656 246.257812 127.527344 246.257812 C 62.332031 246.257812 9.480469 193.40625 9.480469 128.210938 C 9.480469 63.015625 62.332031 10.164062 127.527344 10.164062 C 192.722656 10.164062 245.574219 63.015625 245.574219 128.210938 Z M 245.574219 128.210938 "/>
</clipPath>
<clipPath id="clip69">
  <path d="M 175 174 L 188 174 L 188 185 L 175 185 Z M 175 174 "/>
</clipPath>
<clipPath id="clip70">
  <path d="M 245.574219 128.210938 C 245.574219 193.40625 192.722656 246.257812 127.527344 246.257812 C 62.332031 246.257812 9.480469 193.40625 9.480469 128.210938 C 9.480469 63.015625 62.332031 10.164062 127.527344 10.164062 C 192.722656 10.164062 245.574219 63.015625 245.574219 128.210938 Z M 245.574219 128.210938 "/>
</clipPath>
<clipPath id="clip71">
  <path d="M 170 186 L 246 186 L 246 204 L 170 204 Z M 170 186 "/>
</clipPath>
<clipPath id="clip72">
  <path d="M 245.574219 128.210938 C 245.574219 193.40625 192.722656 246.257812 127.527344 246.257812 C 62.332031 246.257812 9.480469 193.40625 9.480469 128.210938 C 9.480469 63.015625 62.332031 10.164062 127.527344 10.164062 C 192.722656 10.164062 245.574219 63.015625 245.574219 128.210938 Z M 245.574219 128.210938 "/>
</clipPath>
</defs>
<g id="surface1">
<g clip-path="url(#clip1)" clip-rule="nonzero">
<g clip-path="url(#clip2)" clip-rule="nonzero">
<path style=" stroke:none;fill-rule:nonzero;fill:url(#linear0);" d="M 256.125 254.589844 L 1.53125 254.589844 L 1.53125 -0.289062 L 256.125 -0.289062 L 256.125 254.589844 "/>
</g>
</g>
<g clip-path="url(#clip3)" clip-rule="nonzero">
<g clip-path="url(#clip4)" clip-rule="nonzero">
<path style=" stroke:none;fill-rule:nonzero;fill:rgb(90.588235%,97.254902%,100%);fill-opacity:1;" d="M 216.742188 87.257812 C 218.996094 87.257812 220.917969 87.988281 222.511719 89.449219 C 223.371094 90.246094 224.003906 91.175781 224.398438 92.238281 C 225.992188 91.574219 227.683594 91.144531 229.472656 90.945312 C 229.738281 88.886719 230.664062 87.09375 232.257812 85.566406 C 233.316406 84.4375 234.542969 83.640625 235.9375 83.175781 L 239.117188 82.679688 C 241.835938 82.679688 244.15625 83.640625 246.082031 85.566406 L 247.375 87.058594 C 249.628906 87.257812 251.582031 88.1875 253.242188 89.847656 C 255.097656 91.707031 256.058594 93.933594 256.125 96.523438 L 256.125 143.734375 L 1.53125 143.734375 L 1.53125 95.726562 L 5.3125 94.929688 L 9.089844 95.726562 C 11.742188 94.53125 14.691406 93.933594 17.941406 93.933594 L 18.339844 93.933594 C 18.671875 92.472656 19.433594 91.210938 20.625 90.148438 C 22.152344 88.6875 24.042969 87.957031 26.296875 87.957031 C 27.953125 87.957031 29.410156 88.320312 30.671875 89.050781 L 32.660156 86.859375 C 34.449219 85.203125 36.375 83.90625 38.429688 82.976562 L 39.023438 81.183594 L 38.328125 78.59375 L 38.328125 77.699219 C 38.394531 75.707031 39.191406 74.011719 40.714844 72.617188 C 42.308594 71.15625 44.195312 70.425781 46.382812 70.425781 L 48.175781 70.625 C 49.167969 68.433594 50.628906 66.476562 52.550781 64.75 C 56.59375 60.964844 61.5 59.074219 67.269531 59.074219 C 70.585938 59.074219 73.632812 59.703125 76.417969 60.964844 C 77.613281 60.234375 79.039062 59.871094 80.695312 59.871094 C 82.949219 59.871094 84.839844 60.601562 86.363281 62.0625 C 87.820312 63.390625 88.617188 64.980469 88.75 66.839844 L 90.9375 66.542969 C 93.191406 66.542969 95.113281 67.273438 96.707031 68.734375 L 98.398438 71.324219 C 104.164062 71.324219 109.070312 73.214844 113.117188 77 L 116.398438 80.886719 L 116.496094 80.6875 C 118.089844 79.226562 120.011719 78.496094 122.265625 78.496094 C 124.519531 78.496094 126.441406 79.226562 128.03125 80.6875 C 129.09375 81.683594 129.789062 82.8125 130.121094 84.074219 L 131.613281 84.074219 L 135.988281 84.472656 C 136.253906 83.011719 136.984375 81.75 138.175781 80.6875 C 139.769531 79.226562 141.691406 78.496094 143.945312 78.496094 C 145.800781 78.496094 147.425781 78.992188 148.816406 79.988281 C 151.601562 77.664062 154.753906 76.171875 158.265625 75.507812 C 158.597656 74.246094 159.292969 73.082031 160.355469 72.019531 C 161.945312 70.558594 163.867188 69.828125 166.121094 69.828125 C 168.375 69.828125 170.300781 70.558594 171.890625 72.019531 L 173.980469 75.207031 L 175.371094 75.109375 C 177.625 75.109375 179.546875 75.839844 181.140625 77.300781 C 182.664062 78.761719 183.460938 80.453125 183.527344 82.378906 L 183.527344 82.878906 L 183.425781 83.375 L 183.425781 83.476562 C 184.554688 83.011719 185.746094 82.777344 187.007812 82.777344 C 189.261719 82.777344 191.183594 83.507812 192.773438 84.96875 L 192.972656 85.269531 L 196.257812 84.96875 C 201.691406 84.96875 206.398438 86.695312 210.378906 90.148438 L 210.972656 89.449219 C 212.566406 87.988281 214.488281 87.257812 216.742188 87.257812 "/>
</g>
</g>
<g clip-path="url(#clip5)" clip-rule="nonzero">
<g clip-path="url(#clip6)" clip-rule="nonzero">
<path style=" stroke:none;fill-rule:nonzero;fill:rgb(76.470588%,93.72549%,99.607843%);fill-opacity:1;" d="M 213.859375 106.582031 L 219.230469 95.226562 L 223.503906 106.980469 L 221.914062 106.882812 L 224.003906 118.234375 L 222.910156 117.9375 L 225.195312 125.707031 L 218.035156 125.507812 L 218.035156 127.996094 C 225.195312 128.992188 232.222656 127.898438 239.117188 124.710938 C 244.6875 122.1875 250.355469 119.894531 256.125 117.835938 L 256.125 145.027344 L 1.53125 145.027344 L 1.53125 117.835938 C 11.144531 115.179688 20.824219 114.847656 30.570312 116.839844 L 31.765625 111.5625 L 21.421875 111.0625 L 27.789062 95.824219 L 25.402344 95.328125 L 33.058594 81.183594 L 30.371094 80.984375 L 39.523438 62.859375 L 45.789062 82.082031 L 43.300781 81.882812 L 46.1875 100.207031 L 44.296875 99.710938 L 47.675781 112.359375 L 36.140625 111.761719 L 35.84375 118.136719 C 44.460938 120.261719 52.914062 122.851562 61.203125 125.90625 C 70.949219 129.492188 81.027344 131.214844 91.433594 131.082031 L 105.757812 129.589844 L 105.957031 125.804688 L 99.589844 126.503906 L 101.976562 116.640625 L 100.484375 116.542969 L 103.765625 107.082031 L 102.078125 107.28125 L 105.957031 95.328125 L 111.625 106.382812 L 110.132812 106.582031 L 113.710938 117.4375 L 112.417969 117.339844 L 115.800781 124.710938 L 108.640625 125.507812 L 109.039062 128.792969 C 113.214844 127.730469 117.257812 126.269531 121.171875 124.410156 C 127.203125 121.488281 133.4375 119.097656 139.867188 117.238281 L 140.265625 111.0625 L 130.023438 112.257812 L 133.800781 96.125 L 131.316406 96.023438 L 136.683594 80.785156 L 134 81.085938 L 140.164062 61.761719 L 149.316406 79.691406 L 146.929688 79.890625 L 152.695312 97.519531 L 150.707031 97.320312 L 156.078125 109.269531 L 144.542969 110.566406 L 145.238281 115.84375 L 150.308594 114.75 C 160.453125 112.757812 170.5 113.222656 180.441406 116.144531 C 190.125 119.066406 199.671875 122.285156 209.085938 125.804688 L 214.953125 127.5 L 215.351562 125.507812 L 208.984375 125.40625 L 212.566406 115.84375 L 211.074219 115.546875 L 215.550781 106.683594 L 213.859375 106.582031 "/>
</g>
</g>
<path style=" stroke:none;fill-rule:nonzero;fill:rgb(70.980392%,53.72549%,36.862745%);fill-opacity:1;" d="M 127.753906 0.242188 C 93.386719 0.242188 61.808594 13.339844 37.453125 37.695312 C 13.097656 62.050781 0 93.628906 0 128 C 0 162.371094 13.097656 193.945312 37.453125 218.300781 C 57.90625 238.753906 83.46875 251.269531 112.398438 254.992188 C 123.757812 256.453125 141.171875 255.714844 153.585938 253.238281 C 198.277344 244.335938 236.460938 209.71875 249.839844 165.976562 C 263.878906 120.082031 251.835938 71.472656 218.058594 37.695312 C 193.703125 13.339844 162.125 0.242188 127.753906 0.242188 Z M 126.59375 10.261719 C 145.082031 10.09375 163.558594 14.28125 180.398438 22.71875 C 203.476562 34.28125 221.472656 52.277344 233.035156 75.359375 C 249.65625 108.53125 249.65625 147.464844 233.035156 180.636719 C 227.238281 192.214844 221.460938 200.351562 212.257812 209.910156 C 192.785156 230.140625 167.003906 242.472656 138.328125 245.273438 C 116.941406 247.363281 94.871094 243.175781 75.117188 233.277344 C 63.539062 227.476562 55.398438 221.703125 45.839844 212.5 C 8.96875 177.003906 -0.527344 121.269531 22.476562 75.359375 C 36.300781 47.761719 60.054688 26.882812 89.140625 16.757812 C 101.285156 12.53125 113.941406 10.378906 126.59375 10.261719 Z M 126.59375 10.261719 "/>
<g clip-path="url(#clip7)" clip-rule="nonzero">
<g clip-path="url(#clip8)" clip-rule="nonzero">
<path style=" stroke:none;fill-rule:nonzero;fill:rgb(73.333333%,50.196078%,26.666667%);fill-opacity:1;" d="M 70.792969 185.898438 L 65.429688 181.996094 L 61.527344 187.421875 L 66.953125 191.261719 L 70.792969 185.898438 M 61.40625 171.691406 L 60.734375 177.363281 L 72.378906 178.703125 L 73.171875 171.691406 L 92.253906 171.691406 L 92.253906 182.96875 L 83.109375 185.164062 L 85.246094 194.371094 L 92.253906 192.785156 L 92.253906 213.636719 L 88.171875 214.125 L 88.964844 220.710938 L 92.253906 220.34375 L 92.253906 249.734375 L 73.234375 249.734375 L 73.722656 245.097656 L 62.074219 243.757812 L 61.40625 249.734375 L 14.214844 249.734375 L 14.214844 220.34375 L 17.507812 219.917969 L 16.714844 213.332031 L 14.214844 213.636719 L 14.214844 192.785156 L 16.46875 192.238281 L 14.273438 182.96875 L 14.214844 182.96875 L 14.214844 171.691406 L 61.40625 171.691406 M 23.96875 173.765625 L 17.871094 176.445312 L 20.617188 182.484375 L 26.652344 179.738281 L 23.96875 173.765625 M 46.164062 182.96875 L 37.75 175.226562 L 30.003906 183.640625 L 38.417969 191.382812 L 46.164062 182.96875 M 57.257812 215.710938 L 54.394531 206.628906 L 45.308594 209.492188 L 48.234375 218.578125 L 57.257812 215.710938 M 52.257812 194.433594 L 51.589844 201.019531 L 58.171875 201.6875 L 58.84375 195.105469 L 52.257812 194.433594 M 27.445312 195.164062 L 24.335938 207.175781 L 36.347656 210.347656 L 39.457031 198.273438 L 27.445312 195.164062 M 27.566406 214.613281 L 23.664062 219.917969 L 29.03125 223.820312 L 32.871094 218.457031 L 27.566406 214.613281 M 32.199219 232.660156 L 30.308594 226.992188 L 24.699219 228.941406 L 26.589844 234.550781 L 32.199219 232.660156 M 23.96875 246.625 L 22.933594 240.097656 L 16.410156 241.136719 L 17.445312 247.660156 L 23.96875 246.625 M 47.382812 242.113281 L 50.066406 230.222656 L 38.175781 227.539062 L 35.554688 239.488281 L 47.382812 242.113281 M 53.417969 230.648438 L 56.101562 236.683594 L 62.136719 234.003906 L 59.394531 227.90625 L 53.417969 230.648438 M 80.246094 200.714844 L 75.429688 196.140625 L 70.855469 200.957031 L 75.671875 205.53125 L 80.246094 200.714844 M 81.585938 232.050781 L 80.914062 238.695312 L 87.5 239.367188 L 88.230469 232.722656 L 81.585938 232.050781 M 66.34375 225.648438 L 69.210938 234.671875 L 78.234375 231.808594 L 75.367188 222.785156 L 66.34375 225.648438 M 79.085938 208.515625 L 76.707031 214.734375 L 82.988281 217.175781 L 85.304688 210.894531 L 79.085938 208.515625 M 68.660156 207.847656 L 63.539062 212.054688 L 67.746094 217.175781 L 72.929688 212.96875 L 68.660156 207.847656 "/>
<path style=" stroke:none;fill-rule:nonzero;fill:rgb(69.411765%,47.45098%,25.098039%);fill-opacity:1;" d="M 68.660156 207.847656 L 72.929688 212.96875 L 67.746094 217.175781 L 63.539062 212.054688 L 68.660156 207.847656 M 73.171875 171.691406 L 72.378906 178.703125 L 60.734375 177.363281 L 61.40625 171.691406 L 73.171875 171.691406 M 14.214844 182.96875 L 14.273438 182.96875 L 16.46875 192.238281 L 14.214844 192.785156 L 14.214844 182.96875 M 61.40625 249.734375 L 62.074219 243.757812 L 73.722656 245.097656 L 73.234375 249.734375 L 61.40625 249.734375 M 92.253906 192.785156 L 85.246094 194.371094 L 83.109375 185.164062 L 92.253906 182.96875 L 92.253906 192.785156 M 57.257812 215.710938 L 48.234375 218.578125 L 45.308594 209.492188 L 54.394531 206.628906 L 57.257812 215.710938 M 27.445312 195.164062 L 39.457031 198.273438 L 36.347656 210.347656 L 24.335938 207.175781 L 27.445312 195.164062 M 79.085938 208.515625 L 85.304688 210.894531 L 82.988281 217.175781 L 76.707031 214.734375 L 79.085938 208.515625 M 66.34375 225.648438 L 75.367188 222.785156 L 78.234375 231.808594 L 69.210938 234.671875 L 66.34375 225.648438 M 81.585938 232.050781 L 88.230469 232.722656 L 87.5 239.367188 L 80.914062 238.695312 L 81.585938 232.050781 "/>
</g>
</g>
<g clip-path="url(#clip9)" clip-rule="nonzero">
<g clip-path="url(#clip10)" clip-rule="nonzero">
<path style=" stroke:none;fill-rule:nonzero;fill:rgb(80.392157%,54.901961%,29.019608%);fill-opacity:1;" d="M 70.792969 185.898438 L 66.953125 191.261719 L 61.527344 187.421875 L 65.429688 181.996094 L 70.792969 185.898438 M 23.96875 173.765625 L 26.652344 179.738281 L 20.617188 182.484375 L 17.871094 176.445312 L 23.96875 173.765625 M 27.566406 214.613281 L 32.871094 218.457031 L 29.03125 223.820312 L 23.664062 219.917969 L 27.566406 214.613281 M 23.96875 246.625 L 17.445312 247.660156 L 16.410156 241.136719 L 22.933594 240.097656 L 23.96875 246.625 M 53.417969 230.648438 L 59.394531 227.90625 L 62.136719 234.003906 L 56.101562 236.683594 L 53.417969 230.648438 "/>
</g>
</g>
<g clip-path="url(#clip11)" clip-rule="nonzero">
<g clip-path="url(#clip12)" clip-rule="nonzero">
<path style=" stroke:none;fill-rule:nonzero;fill:rgb(62.352941%,42.352941%,22.352941%);fill-opacity:1;" d="M 46.164062 182.96875 L 38.417969 191.382812 L 30.003906 183.640625 L 37.75 175.226562 L 46.164062 182.96875 M 47.382812 242.113281 L 35.554688 239.488281 L 38.175781 227.539062 L 50.066406 230.222656 L 47.382812 242.113281 M 80.246094 200.714844 L 75.671875 205.53125 L 70.855469 200.957031 L 75.429688 196.140625 L 80.246094 200.714844 "/>
</g>
</g>
<g clip-path="url(#clip13)" clip-rule="nonzero">
<g clip-path="url(#clip14)" clip-rule="nonzero">
<path style=" stroke:none;fill-rule:nonzero;fill:rgb(76.862745%,52.54902%,27.843137%);fill-opacity:1;" d="M 14.214844 213.636719 L 16.714844 213.332031 L 17.507812 219.917969 L 14.214844 220.34375 L 14.214844 213.636719 M 92.253906 220.34375 L 88.964844 220.710938 L 88.171875 214.125 L 92.253906 213.636719 L 92.253906 220.34375 M 52.257812 194.433594 L 58.84375 195.105469 L 58.171875 201.6875 L 51.589844 201.019531 L 52.257812 194.433594 M 32.199219 232.660156 L 26.589844 234.550781 L 24.699219 228.941406 L 30.308594 226.992188 L 32.199219 232.660156 "/>
</g>
</g>
<g clip-path="url(#clip15)" clip-rule="nonzero">
<g clip-path="url(#clip16)" clip-rule="nonzero">
<path style=" stroke:none;fill-rule:nonzero;fill:rgb(15.686275%,69.411765%,38.431373%);fill-opacity:1;" d="M 14.214844 196.199219 L 14.214844 191.203125 L 16.835938 189.675781 L 27.199219 183.457031 L 34.699219 187.910156 L 40.25 191.203125 L 43.054688 189.554688 L 53.296875 183.457031 L 59.941406 187.421875 L 65.246094 190.652344 L 66.222656 191.203125 L 76.890625 184.921875 L 79.269531 183.457031 L 81.039062 184.554688 L 90.304688 190.042969 L 92.253906 191.203125 L 92.253906 196.199219 L 79.269531 186.445312 L 66.222656 196.199219 L 53.296875 186.445312 L 40.25 196.199219 L 27.199219 186.445312 L 14.214844 196.199219 "/>
</g>
</g>
<g clip-path="url(#clip17)" clip-rule="nonzero">
<g clip-path="url(#clip18)" clip-rule="nonzero">
<path style=" stroke:none;fill-rule:nonzero;fill:rgb(17.254902%,76.862745%,42.352941%);fill-opacity:1;" d="M 81.039062 184.554688 L 79.269531 183.457031 L 76.890625 184.921875 L 69.941406 182.96875 L 78.476562 174.558594 L 81.039062 184.554688 M 43.054688 189.554688 L 40.25 191.203125 L 34.699219 187.910156 L 44.273438 185.957031 L 43.054688 189.554688 M 84.632812 175.472656 L 91.707031 177.847656 L 86.160156 182.789062 L 84.632812 175.472656 M 61.953125 174.128906 L 60.246094 179.128906 L 55.855469 174.128906 L 61.953125 174.128906 M 38.480469 182.054688 L 36.957031 174.738281 L 44.027344 177.117188 L 38.480469 182.054688 "/>
</g>
</g>
<g clip-path="url(#clip19)" clip-rule="nonzero">
<g clip-path="url(#clip20)" clip-rule="nonzero">
<path style=" stroke:none;fill-rule:nonzero;fill:rgb(18.039216%,80%,44.313725%);fill-opacity:1;" d="M 38.480469 182.054688 L 44.027344 177.117188 L 36.957031 174.738281 L 38.480469 182.054688 M 76.890625 184.921875 L 66.222656 191.203125 L 65.246094 190.652344 L 67.074219 187.421875 L 59.941406 187.421875 L 53.296875 183.457031 L 43.054688 189.554688 L 44.273438 185.957031 L 34.699219 187.910156 L 27.199219 183.457031 L 16.835938 189.675781 L 14.214844 186.75 L 14.214844 174.128906 L 19.761719 174.128906 L 25.492188 184.128906 L 31.285156 174.128906 L 55.855469 174.128906 L 60.246094 179.128906 L 61.953125 174.128906 L 92.253906 174.128906 L 92.253906 186.691406 L 91.585938 185.957031 L 90.304688 190.042969 L 81.039062 184.554688 L 78.476562 174.558594 L 69.941406 182.96875 L 76.890625 184.921875 M 84.632812 175.472656 L 86.160156 182.789062 L 91.707031 177.847656 L 84.632812 175.472656 "/>
</g>
</g>
<g clip-path="url(#clip21)" clip-rule="nonzero">
<g clip-path="url(#clip22)" clip-rule="nonzero">
<path style=" stroke:none;fill-rule:nonzero;fill:rgb(16.470588%,73.333333%,40.392157%);fill-opacity:1;" d="M 65.246094 190.652344 L 59.941406 187.421875 L 67.074219 187.421875 L 65.246094 190.652344 M 16.835938 189.675781 L 14.214844 191.203125 L 14.214844 186.75 L 16.835938 189.675781 M 92.253906 191.203125 L 90.304688 190.042969 L 91.585938 185.957031 L 92.253906 186.691406 L 92.253906 191.203125 "/>
</g>
</g>
<g clip-path="url(#clip23)" clip-rule="nonzero">
<g clip-path="url(#clip24)" clip-rule="nonzero">
<path style=" stroke:none;fill-rule:nonzero;fill:rgb(19.215686%,85.098039%,47.058824%);fill-opacity:1;" d="M 92.253906 174.128906 L 14.214844 174.128906 L 14.214844 171.691406 L 92.253906 171.691406 L 92.253906 174.128906 "/>
</g>
</g>
<g clip-path="url(#clip25)" clip-rule="nonzero">
<g clip-path="url(#clip26)" clip-rule="nonzero">
<path style=" stroke:none;fill-rule:nonzero;fill:rgb(18.823529%,83.137255%,45.882353%);fill-opacity:1;" d="M 31.285156 174.128906 L 25.492188 184.128906 L 19.761719 174.128906 L 31.285156 174.128906 "/>
</g>
</g>
<g clip-path="url(#clip27)" clip-rule="nonzero">
<g clip-path="url(#clip28)" clip-rule="nonzero">
<path style=" stroke:none;fill-rule:nonzero;fill:rgb(0%,0%,0%);fill-opacity:0.101961;" d="M 14.214844 196.199219 L 27.199219 186.445312 L 40.25 196.199219 L 53.296875 186.445312 L 66.222656 196.199219 L 79.269531 186.445312 L 92.253906 196.199219 L 92.253906 203.457031 L 79.269531 190.652344 L 66.222656 203.457031 L 53.296875 190.652344 L 40.25 203.457031 L 27.199219 190.652344 L 14.214844 203.457031 L 14.214844 196.199219 "/>
</g>
</g>
<g clip-path="url(#clip29)" clip-rule="nonzero">
<g clip-path="url(#clip30)" clip-rule="nonzero">
<path style=" stroke:none;fill-rule:nonzero;fill:rgb(73.333333%,50.196078%,26.666667%);fill-opacity:1;" d="M 148.695312 185.898438 L 143.332031 181.996094 L 139.429688 187.421875 L 144.855469 191.261719 L 148.695312 185.898438 M 139.308594 171.691406 L 138.636719 177.363281 L 150.28125 178.703125 L 151.074219 171.691406 L 170.15625 171.691406 L 170.15625 182.96875 L 161.011719 185.164062 L 163.144531 194.371094 L 170.15625 192.785156 L 170.15625 213.636719 L 166.074219 214.125 L 166.867188 220.710938 L 170.15625 220.34375 L 170.15625 249.734375 L 151.136719 249.734375 L 151.621094 245.097656 L 139.976562 243.757812 L 139.308594 249.734375 L 92.117188 249.734375 L 92.117188 220.34375 L 95.410156 219.917969 L 94.617188 213.332031 L 92.117188 213.636719 L 92.117188 192.785156 L 94.371094 192.238281 L 92.175781 182.96875 L 92.117188 182.96875 L 92.117188 171.691406 L 139.308594 171.691406 M 101.871094 173.765625 L 95.773438 176.445312 L 98.519531 182.484375 L 104.554688 179.738281 L 101.871094 173.765625 M 124.066406 182.96875 L 115.652344 175.226562 L 107.90625 183.640625 L 116.320312 191.382812 L 124.066406 182.96875 M 135.160156 215.710938 L 132.296875 206.628906 L 123.210938 209.492188 L 126.136719 218.578125 L 135.160156 215.710938 M 130.160156 194.433594 L 129.492188 201.019531 L 136.074219 201.6875 L 136.746094 195.105469 L 130.160156 194.433594 M 105.347656 195.164062 L 102.238281 207.175781 L 114.25 210.347656 L 117.359375 198.273438 L 105.347656 195.164062 M 105.46875 214.613281 L 101.566406 219.917969 L 106.933594 223.820312 L 110.773438 218.457031 L 105.46875 214.613281 M 110.101562 232.660156 L 108.210938 226.992188 L 102.601562 228.941406 L 104.492188 234.550781 L 110.101562 232.660156 M 101.871094 246.625 L 100.835938 240.097656 L 94.3125 241.136719 L 95.347656 247.660156 L 101.871094 246.625 M 125.285156 242.113281 L 127.964844 230.222656 L 116.078125 227.539062 L 113.457031 239.488281 L 125.285156 242.113281 M 131.320312 230.648438 L 134.003906 236.683594 L 140.039062 234.003906 L 137.296875 227.90625 L 131.320312 230.648438 M 158.148438 200.714844 L 153.332031 196.140625 L 148.757812 200.957031 L 153.574219 205.53125 L 158.148438 200.714844 M 159.488281 232.050781 L 158.816406 238.695312 L 165.402344 239.367188 L 166.132812 232.722656 L 159.488281 232.050781 M 144.246094 225.648438 L 147.109375 234.671875 L 156.136719 231.808594 L 153.269531 222.785156 L 144.246094 225.648438 M 156.988281 208.515625 L 154.609375 214.734375 L 160.890625 217.175781 L 163.207031 210.894531 L 156.988281 208.515625 M 146.5625 207.847656 L 141.441406 212.054688 L 145.648438 217.175781 L 150.832031 212.96875 L 146.5625 207.847656 "/>
<path style=" stroke:none;fill-rule:nonzero;fill:rgb(69.411765%,47.45098%,25.098039%);fill-opacity:1;" d="M 146.5625 207.847656 L 150.832031 212.96875 L 145.648438 217.175781 L 141.441406 212.054688 L 146.5625 207.847656 M 151.074219 171.691406 L 150.28125 178.703125 L 138.636719 177.363281 L 139.308594 171.691406 L 151.074219 171.691406 M 92.117188 182.96875 L 92.175781 182.96875 L 94.371094 192.238281 L 92.117188 192.785156 L 92.117188 182.96875 M 139.308594 249.734375 L 139.976562 243.757812 L 151.621094 245.097656 L 151.136719 249.734375 L 139.308594 249.734375 M 170.15625 192.785156 L 163.144531 194.371094 L 161.011719 185.164062 L 170.15625 182.96875 L 170.15625 192.785156 M 135.160156 215.710938 L 126.136719 218.578125 L 123.210938 209.492188 L 132.296875 206.628906 L 135.160156 215.710938 M 105.347656 195.164062 L 117.359375 198.273438 L 114.25 210.347656 L 102.238281 207.175781 L 105.347656 195.164062 M 156.988281 208.515625 L 163.207031 210.894531 L 160.890625 217.175781 L 154.609375 214.734375 L 156.988281 208.515625 M 144.246094 225.648438 L 153.269531 222.785156 L 156.136719 231.808594 L 147.109375 234.671875 L 144.246094 225.648438 M 159.488281 232.050781 L 166.132812 232.722656 L 165.402344 239.367188 L 158.816406 238.695312 L 159.488281 232.050781 "/>
</g>
</g>
<g clip-path="url(#clip31)" clip-rule="nonzero">
<g clip-path="url(#clip32)" clip-rule="nonzero">
<path style=" stroke:none;fill-rule:nonzero;fill:rgb(80.392157%,54.901961%,29.019608%);fill-opacity:1;" d="M 148.695312 185.898438 L 144.855469 191.261719 L 139.429688 187.421875 L 143.332031 181.996094 L 148.695312 185.898438 M 101.871094 173.765625 L 104.554688 179.738281 L 98.519531 182.484375 L 95.773438 176.445312 L 101.871094 173.765625 M 105.46875 214.613281 L 110.773438 218.457031 L 106.933594 223.820312 L 101.566406 219.917969 L 105.46875 214.613281 M 101.871094 246.625 L 95.347656 247.660156 L 94.3125 241.136719 L 100.835938 240.097656 L 101.871094 246.625 M 131.320312 230.648438 L 137.296875 227.90625 L 140.039062 234.003906 L 134.003906 236.683594 L 131.320312 230.648438 "/>
</g>
</g>
<g clip-path="url(#clip33)" clip-rule="nonzero">
<g clip-path="url(#clip34)" clip-rule="nonzero">
<path style=" stroke:none;fill-rule:nonzero;fill:rgb(62.352941%,42.352941%,22.352941%);fill-opacity:1;" d="M 124.066406 182.96875 L 116.320312 191.382812 L 107.90625 183.640625 L 115.652344 175.226562 L 124.066406 182.96875 M 125.285156 242.113281 L 113.457031 239.488281 L 116.078125 227.539062 L 127.964844 230.222656 L 125.285156 242.113281 M 158.148438 200.714844 L 153.574219 205.53125 L 148.757812 200.957031 L 153.332031 196.140625 L 158.148438 200.714844 "/>
</g>
</g>
<g clip-path="url(#clip35)" clip-rule="nonzero">
<g clip-path="url(#clip36)" clip-rule="nonzero">
<path style=" stroke:none;fill-rule:nonzero;fill:rgb(76.862745%,52.54902%,27.843137%);fill-opacity:1;" d="M 92.117188 213.636719 L 94.617188 213.332031 L 95.410156 219.917969 L 92.117188 220.34375 L 92.117188 213.636719 M 170.15625 220.34375 L 166.867188 220.710938 L 166.074219 214.125 L 170.15625 213.636719 L 170.15625 220.34375 M 130.160156 194.433594 L 136.746094 195.105469 L 136.074219 201.6875 L 129.492188 201.019531 L 130.160156 194.433594 M 110.101562 232.660156 L 104.492188 234.550781 L 102.601562 228.941406 L 108.210938 226.992188 L 110.101562 232.660156 "/>
</g>
</g>
<g clip-path="url(#clip37)" clip-rule="nonzero">
<g clip-path="url(#clip38)" clip-rule="nonzero">
<path style=" stroke:none;fill-rule:nonzero;fill:rgb(15.686275%,69.411765%,38.431373%);fill-opacity:1;" d="M 92.117188 196.199219 L 92.117188 191.203125 L 94.738281 189.675781 L 105.101562 183.457031 L 112.601562 187.910156 L 118.152344 191.203125 L 120.957031 189.554688 L 131.199219 183.457031 L 137.84375 187.421875 L 143.148438 190.652344 L 144.125 191.203125 L 154.792969 184.921875 L 157.171875 183.457031 L 158.9375 184.554688 L 168.207031 190.042969 L 170.15625 191.203125 L 170.15625 196.199219 L 157.171875 186.445312 L 144.125 196.199219 L 131.199219 186.445312 L 118.152344 196.199219 L 105.101562 186.445312 L 92.117188 196.199219 "/>
</g>
</g>
<g clip-path="url(#clip39)" clip-rule="nonzero">
<g clip-path="url(#clip40)" clip-rule="nonzero">
<path style=" stroke:none;fill-rule:nonzero;fill:rgb(17.254902%,76.862745%,42.352941%);fill-opacity:1;" d="M 158.9375 184.554688 L 157.171875 183.457031 L 154.792969 184.921875 L 147.84375 182.96875 L 156.378906 174.558594 L 158.9375 184.554688 M 120.957031 189.554688 L 118.152344 191.203125 L 112.601562 187.910156 L 122.175781 185.957031 L 120.957031 189.554688 M 162.535156 175.472656 L 169.609375 177.847656 L 164.0625 182.789062 L 162.535156 175.472656 M 139.855469 174.128906 L 138.148438 179.128906 L 133.757812 174.128906 L 139.855469 174.128906 M 116.382812 182.054688 L 114.859375 174.738281 L 121.929688 177.117188 L 116.382812 182.054688 "/>
</g>
</g>
<g clip-path="url(#clip41)" clip-rule="nonzero">
<g clip-path="url(#clip42)" clip-rule="nonzero">
<path style=" stroke:none;fill-rule:nonzero;fill:rgb(18.039216%,80%,44.313725%);fill-opacity:1;" d="M 116.382812 182.054688 L 121.929688 177.117188 L 114.859375 174.738281 L 116.382812 182.054688 M 154.792969 184.921875 L 144.125 191.203125 L 143.148438 190.652344 L 144.976562 187.421875 L 137.84375 187.421875 L 131.199219 183.457031 L 120.957031 189.554688 L 122.175781 185.957031 L 112.601562 187.910156 L 105.101562 183.457031 L 94.738281 189.675781 L 92.117188 186.75 L 92.117188 174.128906 L 97.664062 174.128906 L 103.394531 184.128906 L 109.1875 174.128906 L 133.757812 174.128906 L 138.148438 179.128906 L 139.855469 174.128906 L 170.15625 174.128906 L 170.15625 186.691406 L 169.488281 185.957031 L 168.207031 190.042969 L 158.9375 184.554688 L 156.378906 174.558594 L 147.84375 182.96875 L 154.792969 184.921875 M 162.535156 175.472656 L 164.0625 182.789062 L 169.609375 177.847656 L 162.535156 175.472656 "/>
</g>
</g>
<g clip-path="url(#clip43)" clip-rule="nonzero">
<g clip-path="url(#clip44)" clip-rule="nonzero">
<path style=" stroke:none;fill-rule:nonzero;fill:rgb(16.470588%,73.333333%,40.392157%);fill-opacity:1;" d="M 143.148438 190.652344 L 137.84375 187.421875 L 144.976562 187.421875 L 143.148438 190.652344 M 94.738281 189.675781 L 92.117188 191.203125 L 92.117188 186.75 L 94.738281 189.675781 M 170.15625 191.203125 L 168.207031 190.042969 L 169.488281 185.957031 L 170.15625 186.691406 L 170.15625 191.203125 "/>
</g>
</g>
<g clip-path="url(#clip45)" clip-rule="nonzero">
<g clip-path="url(#clip46)" clip-rule="nonzero">
<path style=" stroke:none;fill-rule:nonzero;fill:rgb(19.215686%,85.098039%,47.058824%);fill-opacity:1;" d="M 170.15625 174.128906 L 92.117188 174.128906 L 92.117188 171.691406 L 170.15625 171.691406 L 170.15625 174.128906 "/>
</g>
</g>
<g clip-path="url(#clip47)" clip-rule="nonzero">
<g clip-path="url(#clip48)" clip-rule="nonzero">
<path style=" stroke:none;fill-rule:nonzero;fill:rgb(18.823529%,83.137255%,45.882353%);fill-opacity:1;" d="M 109.1875 174.128906 L 103.394531 184.128906 L 97.664062 174.128906 L 109.1875 174.128906 "/>
</g>
</g>
<g clip-path="url(#clip49)" clip-rule="nonzero">
<g clip-path="url(#clip50)" clip-rule="nonzero">
<path style=" stroke:none;fill-rule:nonzero;fill:rgb(0%,0%,0%);fill-opacity:0.101961;" d="M 92.117188 196.199219 L 105.101562 186.445312 L 118.152344 196.199219 L 131.199219 186.445312 L 144.125 196.199219 L 157.171875 186.445312 L 170.15625 196.199219 L 170.15625 203.457031 L 157.171875 190.652344 L 144.125 203.457031 L 131.199219 190.652344 L 118.152344 203.457031 L 105.101562 190.652344 L 92.117188 203.457031 L 92.117188 196.199219 "/>
</g>
</g>
<g clip-path="url(#clip51)" clip-rule="nonzero">
<g clip-path="url(#clip52)" clip-rule="nonzero">
<path style=" stroke:none;fill-rule:nonzero;fill:rgb(73.333333%,50.196078%,26.666667%);fill-opacity:1;" d="M 226.675781 185.898438 L 221.308594 181.996094 L 217.40625 187.421875 L 222.835938 191.261719 L 226.675781 185.898438 M 217.285156 171.691406 L 216.613281 177.363281 L 228.261719 178.703125 L 229.054688 171.691406 L 248.136719 171.691406 L 248.136719 182.96875 L 238.992188 185.164062 L 241.125 194.371094 L 248.136719 192.785156 L 248.136719 213.636719 L 244.050781 214.125 L 244.84375 220.710938 L 248.136719 220.34375 L 248.136719 249.734375 L 229.113281 249.734375 L 229.601562 245.097656 L 217.957031 243.757812 L 217.285156 249.734375 L 170.09375 249.734375 L 170.09375 220.34375 L 173.386719 219.917969 L 172.59375 213.332031 L 170.09375 213.636719 L 170.09375 192.785156 L 172.351562 192.238281 L 170.15625 182.96875 L 170.09375 182.96875 L 170.09375 171.691406 L 217.285156 171.691406 M 179.851562 173.765625 L 173.753906 176.445312 L 176.496094 182.484375 L 182.53125 179.738281 L 179.851562 173.765625 M 202.042969 182.96875 L 193.628906 175.226562 L 185.886719 183.640625 L 194.300781 191.382812 L 202.042969 182.96875 M 213.140625 215.710938 L 210.273438 206.628906 L 201.191406 209.492188 L 204.117188 218.578125 L 213.140625 215.710938 M 208.140625 194.433594 L 207.46875 201.019531 L 214.054688 201.6875 L 214.726562 195.105469 L 208.140625 194.433594 M 183.324219 195.164062 L 180.214844 207.175781 L 192.226562 210.347656 L 195.335938 198.273438 L 183.324219 195.164062 M 183.449219 214.613281 L 179.546875 219.917969 L 184.910156 223.820312 L 188.753906 218.457031 L 183.449219 214.613281 M 188.082031 232.660156 L 186.191406 226.992188 L 180.582031 228.941406 L 182.472656 234.550781 L 188.082031 232.660156 M 179.851562 246.625 L 178.8125 240.097656 L 172.289062 241.136719 L 173.328125 247.660156 L 179.851562 246.625 M 203.261719 242.113281 L 205.945312 230.222656 L 194.054688 227.539062 L 191.433594 239.488281 L 203.261719 242.113281 M 209.296875 230.648438 L 211.980469 236.683594 L 218.015625 234.003906 L 215.273438 227.90625 L 209.296875 230.648438 M 236.125 200.714844 L 231.308594 196.140625 L 226.734375 200.957031 L 231.554688 205.53125 L 236.125 200.714844 M 237.46875 232.050781 L 236.796875 238.695312 L 243.382812 239.367188 L 244.113281 232.722656 L 237.46875 232.050781 M 222.222656 225.648438 L 225.089844 234.671875 L 234.113281 231.808594 L 231.246094 222.785156 L 222.222656 225.648438 M 234.96875 208.515625 L 232.589844 214.734375 L 238.871094 217.175781 L 241.1875 210.894531 L 234.96875 208.515625 M 224.542969 207.847656 L 219.417969 212.054688 L 223.625 217.175781 L 228.808594 212.96875 L 224.542969 207.847656 "/>
<path style=" stroke:none;fill-rule:nonzero;fill:rgb(69.411765%,47.45098%,25.098039%);fill-opacity:1;" d="M 224.542969 207.847656 L 228.808594 212.96875 L 223.625 217.175781 L 219.417969 212.054688 L 224.542969 207.847656 M 229.054688 171.691406 L 228.261719 178.703125 L 216.613281 177.363281 L 217.285156 171.691406 L 229.054688 171.691406 M 170.09375 182.96875 L 170.15625 182.96875 L 172.351562 192.238281 L 170.09375 192.785156 L 170.09375 182.96875 M 217.285156 249.734375 L 217.957031 243.757812 L 229.601562 245.097656 L 229.113281 249.734375 L 217.285156 249.734375 M 248.136719 192.785156 L 241.125 194.371094 L 238.992188 185.164062 L 248.136719 182.96875 L 248.136719 192.785156 M 213.140625 215.710938 L 204.117188 218.578125 L 201.191406 209.492188 L 210.273438 206.628906 L 213.140625 215.710938 M 183.324219 195.164062 L 195.335938 198.273438 L 192.226562 210.347656 L 180.214844 207.175781 L 183.324219 195.164062 M 234.96875 208.515625 L 241.1875 210.894531 L 238.871094 217.175781 L 232.589844 214.734375 L 234.96875 208.515625 M 222.222656 225.648438 L 231.246094 222.785156 L 234.113281 231.808594 L 225.089844 234.671875 L 222.222656 225.648438 M 237.46875 232.050781 L 244.113281 232.722656 L 243.382812 239.367188 L 236.796875 238.695312 L 237.46875 232.050781 "/>
</g>
</g>
<g clip-path="url(#clip53)" clip-rule="nonzero">
<g clip-path="url(#clip54)" clip-rule="nonzero">
<path style=" stroke:none;fill-rule:nonzero;fill:rgb(80.392157%,54.901961%,29.019608%);fill-opacity:1;" d="M 226.675781 185.898438 L 222.835938 191.261719 L 217.40625 187.421875 L 221.308594 181.996094 L 226.675781 185.898438 M 179.851562 173.765625 L 182.53125 179.738281 L 176.496094 182.484375 L 173.753906 176.445312 L 179.851562 173.765625 M 183.449219 214.613281 L 188.75 218.457031 L 184.910156 223.820312 L 179.546875 219.917969 L 183.449219 214.613281 M 179.851562 246.625 L 173.328125 247.660156 L 172.289062 241.136719 L 178.8125 240.097656 L 179.851562 246.625 M 209.296875 230.648438 L 215.273438 227.90625 L 218.015625 234.003906 L 211.980469 236.683594 L 209.296875 230.648438 "/>
</g>
</g>
<g clip-path="url(#clip55)" clip-rule="nonzero">
<g clip-path="url(#clip56)" clip-rule="nonzero">
<path style=" stroke:none;fill-rule:nonzero;fill:rgb(62.352941%,42.352941%,22.352941%);fill-opacity:1;" d="M 202.042969 182.96875 L 194.300781 191.382812 L 185.886719 183.640625 L 193.628906 175.226562 L 202.042969 182.96875 M 203.261719 242.113281 L 191.433594 239.488281 L 194.054688 227.539062 L 205.945312 230.222656 L 203.261719 242.113281 M 236.125 200.714844 L 231.554688 205.53125 L 226.734375 200.957031 L 231.308594 196.140625 L 236.125 200.714844 "/>
</g>
</g>
<g clip-path="url(#clip57)" clip-rule="nonzero">
<g clip-path="url(#clip58)" clip-rule="nonzero">
<path style=" stroke:none;fill-rule:nonzero;fill:rgb(76.862745%,52.54902%,27.843137%);fill-opacity:1;" d="M 170.09375 213.636719 L 172.59375 213.332031 L 173.386719 219.917969 L 170.09375 220.34375 L 170.09375 213.636719 M 248.136719 220.34375 L 244.84375 220.710938 L 244.050781 214.125 L 248.136719 213.636719 L 248.136719 220.34375 M 208.140625 194.433594 L 214.726562 195.105469 L 214.054688 201.6875 L 207.46875 201.019531 L 208.140625 194.433594 M 188.082031 232.660156 L 182.472656 234.550781 L 180.582031 228.941406 L 186.191406 226.992188 L 188.082031 232.660156 "/>
</g>
</g>
<g clip-path="url(#clip59)" clip-rule="nonzero">
<g clip-path="url(#clip60)" clip-rule="nonzero">
<path style=" stroke:none;fill-rule:nonzero;fill:rgb(15.686275%,69.411765%,38.431373%);fill-opacity:1;" d="M 170.09375 196.199219 L 170.09375 191.203125 L 172.71875 189.675781 L 183.082031 183.457031 L 190.582031 187.910156 L 196.128906 191.203125 L 198.933594 189.554688 L 209.175781 183.457031 L 215.824219 187.421875 L 221.125 190.652344 L 222.101562 191.203125 L 232.773438 184.921875 L 235.148438 183.457031 L 236.917969 184.554688 L 246.183594 190.042969 L 248.136719 191.203125 L 248.136719 196.199219 L 235.148438 186.445312 L 222.101562 196.199219 L 209.175781 186.445312 L 196.128906 196.199219 L 183.082031 186.445312 L 170.09375 196.199219 "/>
</g>
</g>
<g clip-path="url(#clip61)" clip-rule="nonzero">
<g clip-path="url(#clip62)" clip-rule="nonzero">
<path style=" stroke:none;fill-rule:nonzero;fill:rgb(17.254902%,76.862745%,42.352941%);fill-opacity:1;" d="M 236.917969 184.554688 L 235.148438 183.457031 L 232.773438 184.921875 L 225.820312 182.96875 L 234.355469 174.558594 L 236.917969 184.554688 M 198.933594 189.554688 L 196.128906 191.203125 L 190.582031 187.910156 L 200.152344 185.957031 L 198.933594 189.554688 M 240.515625 175.472656 L 247.585938 177.847656 L 242.039062 182.789062 L 240.515625 175.472656 M 217.835938 174.128906 L 216.128906 179.128906 L 211.738281 174.128906 L 217.835938 174.128906 M 194.359375 182.054688 L 192.835938 174.738281 L 199.910156 177.117188 L 194.359375 182.054688 "/>
</g>
</g>
<g clip-path="url(#clip63)" clip-rule="nonzero">
<g clip-path="url(#clip64)" clip-rule="nonzero">
<path style=" stroke:none;fill-rule:nonzero;fill:rgb(18.039216%,80%,44.313725%);fill-opacity:1;" d="M 194.359375 182.054688 L 199.910156 177.117188 L 192.835938 174.738281 L 194.359375 182.054688 M 232.773438 184.921875 L 222.101562 191.203125 L 221.125 190.652344 L 222.957031 187.421875 L 215.824219 187.421875 L 209.175781 183.457031 L 198.933594 189.554688 L 200.152344 185.957031 L 190.582031 187.910156 L 183.082031 183.457031 L 172.71875 189.675781 L 170.09375 186.75 L 170.09375 174.128906 L 175.644531 174.128906 L 181.375 184.128906 L 187.167969 174.128906 L 211.738281 174.128906 L 216.128906 179.128906 L 217.835938 174.128906 L 248.136719 174.128906 L 248.136719 186.691406 L 247.464844 185.957031 L 246.183594 190.042969 L 236.917969 184.554688 L 234.355469 174.558594 L 225.820312 182.96875 L 232.773438 184.921875 M 240.515625 175.472656 L 242.039062 182.789062 L 247.585938 177.847656 L 240.515625 175.472656 "/>
</g>
</g>
<g clip-path="url(#clip65)" clip-rule="nonzero">
<g clip-path="url(#clip66)" clip-rule="nonzero">
<path style=" stroke:none;fill-rule:nonzero;fill:rgb(16.470588%,73.333333%,40.392157%);fill-opacity:1;" d="M 221.125 190.652344 L 215.824219 187.421875 L 222.957031 187.421875 L 221.125 190.652344 M 172.71875 189.675781 L 170.09375 191.203125 L 170.09375 186.75 L 172.71875 189.675781 M 248.136719 191.203125 L 246.183594 190.042969 L 247.464844 185.957031 L 248.136719 186.691406 L 248.136719 191.203125 "/>
</g>
</g>
<g clip-path="url(#clip67)" clip-rule="nonzero">
<g clip-path="url(#clip68)" clip-rule="nonzero">
<path style=" stroke:none;fill-rule:nonzero;fill:rgb(19.215686%,85.098039%,47.058824%);fill-opacity:1;" d="M 248.136719 174.128906 L 170.09375 174.128906 L 170.09375 171.691406 L 248.136719 171.691406 L 248.136719 174.128906 "/>
</g>
</g>
<g clip-path="url(#clip69)" clip-rule="nonzero">
<g clip-path="url(#clip70)" clip-rule="nonzero">
<path style=" stroke:none;fill-rule:nonzero;fill:rgb(18.823529%,83.137255%,45.882353%);fill-opacity:1;" d="M 187.167969 174.128906 L 181.375 184.128906 L 175.644531 174.128906 L 187.167969 174.128906 "/>
</g>
</g>
<g clip-path="url(#clip71)" clip-rule="nonzero">
<g clip-path="url(#clip72)" clip-rule="nonzero">
<path style=" stroke:none;fill-rule:nonzero;fill:rgb(0%,0%,0%);fill-opacity:0.101961;" d="M 170.09375 196.199219 L 183.082031 186.445312 L 196.128906 196.199219 L 209.175781 186.445312 L 222.101562 196.199219 L 235.148438 186.445312 L 248.136719 196.199219 L 248.136719 203.457031 L 235.148438 190.652344 L 222.101562 203.457031 L 209.175781 190.652344 L 196.128906 203.457031 L 183.082031 190.652344 L 170.09375 203.457031 L 170.09375 196.199219 "/>
</g>
</g>
<path style=" stroke:none;fill-rule:nonzero;fill:rgb(40%,26.666667%,12.941176%);fill-opacity:1;" d="M 210.039062 161.21875 L 210.078125 161.21875 L 214.195312 157.101562 L 232.011719 157.101562 L 236.128906 161.21875 L 236.128906 170.1875 L 222.636719 170.1875 L 218.355469 163.785156 L 210.039062 163.785156 L 210.039062 161.21875 "/>
<path style=" stroke:none;fill-rule:nonzero;fill:rgb(79.607843%,55.294118%,30.588235%);fill-opacity:1;" d="M 210.039062 163.785156 L 218.355469 163.785156 L 222.636719 170.1875 L 236.128906 170.1875 L 236.128906 171.734375 L 210.039062 171.734375 L 210.039062 163.785156 "/>
<path style=" stroke:none;fill-rule:nonzero;fill:rgb(49.411765%,32.156863%,15.686275%);fill-opacity:1;" d="M 236.128906 161.21875 L 232.011719 157.101562 L 214.195312 157.101562 L 210.078125 161.21875 L 210.039062 161.21875 L 210.039062 159.585938 L 210.078125 159.585938 L 214.195312 155.46875 L 232.011719 155.46875 L 236.128906 159.585938 L 236.128906 161.21875 "/>
<path style=" stroke:none;fill-rule:nonzero;fill:rgb(30.196078%,20%,10.196078%);fill-opacity:1;" d="M 210.039062 171.777344 L 206.777344 171.777344 L 206.777344 168.515625 L 210.039062 168.515625 L 210.039062 171.777344 "/>
<path style=" stroke:none;fill-rule:nonzero;fill:rgb(40%,26.666667%,12.941176%);fill-opacity:1;" d="M 215.746094 165.253906 L 215.746094 168.515625 L 212.484375 168.515625 L 212.484375 165.253906 L 215.746094 165.253906 "/>
<path style=" stroke:none;fill-rule:nonzero;fill:rgb(79.607843%,55.294118%,30.588235%);fill-opacity:1;" d="M 222.269531 164.4375 L 219.824219 166.882812 L 217.375 164.4375 L 219.824219 161.992188 L 222.269531 164.4375 "/>
<path style=" stroke:none;fill-rule:nonzero;fill:rgb(87.843137%,75.686275%,63.529412%);fill-opacity:1;" d="M 79.332031 150.273438 L 87.355469 148.847656 L 89.363281 160.125 L 81.339844 161.550781 L 79.332031 150.273438 "/>
<path style=" stroke:none;fill-rule:nonzero;fill:rgb(73.333333%,50.196078%,26.666667%);fill-opacity:1;" d="M 81.339844 161.550781 L 89.363281 160.125 L 91.359375 171.320312 L 83.332031 172.75 L 81.339844 161.550781 "/>
<path style=" stroke:none;fill-rule:nonzero;fill:rgb(92.54902%,81.176471%,69.411765%);fill-opacity:1;" d="M 81.339844 161.550781 L 78.128906 162.125 L 76.121094 150.847656 L 79.332031 150.273438 L 81.339844 161.550781 "/>
<path style=" stroke:none;fill-rule:nonzero;fill:rgb(79.607843%,56.862745%,33.333333%);fill-opacity:1;" d="M 81.339844 161.550781 L 83.332031 172.75 L 80.121094 173.320312 L 78.128906 162.125 L 81.339844 161.550781 "/>
<path style=" stroke:none;fill-rule:nonzero;fill:rgb(87.843137%,75.686275%,63.529412%);fill-opacity:1;" d="M 76.414062 149.410156 L 84.117188 152.082031 L 80.363281 162.902344 L 72.660156 160.230469 L 76.414062 149.410156 "/>
<path style=" stroke:none;fill-rule:nonzero;fill:rgb(73.333333%,50.196078%,26.666667%);fill-opacity:1;" d="M 72.660156 160.230469 L 80.363281 162.902344 L 76.632812 173.648438 L 68.933594 170.976562 L 72.660156 160.230469 "/>
<path style=" stroke:none;fill-rule:nonzero;fill:rgb(92.54902%,81.176471%,69.411765%);fill-opacity:1;" d="M 72.660156 160.230469 L 69.578125 159.160156 L 73.332031 148.339844 L 76.414062 149.410156 L 72.660156 160.230469 "/>
<path style=" stroke:none;fill-rule:nonzero;fill:rgb(79.607843%,56.862745%,33.333333%);fill-opacity:1;" d="M 72.660156 160.230469 L 68.933594 170.976562 L 65.851562 169.90625 L 69.578125 159.160156 L 72.660156 160.230469 "/>
<path style=" stroke:none;fill-rule:nonzero;fill:rgb(90.980392%,41.568627%,9.019608%);fill-opacity:1;" d="M 74.382812 128.484375 L 89.058594 128.484375 L 89.058594 152.535156 L 74.382812 152.535156 L 74.382812 128.484375 "/>
<path style=" stroke:none;fill-rule:nonzero;fill:rgb(94.117647%,47.843137%,17.254902%);fill-opacity:1;" d="M 74.382812 128.484375 L 74.382812 152.535156 L 71.121094 152.535156 L 71.121094 128.484375 L 74.382812 128.484375 "/>
<path style=" stroke:none;fill-rule:nonzero;fill:rgb(94.117647%,47.843137%,17.254902%);fill-opacity:1;" d="M 88.398438 134.105469 L 77.496094 130.722656 L 77.980469 129.164062 L 88.882812 132.546875 L 88.398438 134.105469 "/>
<path style=" stroke:none;fill-rule:nonzero;fill:rgb(85.098039%,38.823529%,8.235294%);fill-opacity:1;" d="M 88.398438 134.105469 L 84.050781 148.121094 L 73.148438 144.738281 L 77.496094 130.722656 L 88.398438 134.105469 "/>
<path style=" stroke:none;fill-rule:nonzero;fill:rgb(98.823529%,85.882353%,70.588235%);fill-opacity:1;" d="M 73.148438 144.738281 L 84.050781 148.121094 L 81.875 155.128906 L 70.972656 151.746094 L 73.148438 144.738281 "/>
<path style=" stroke:none;fill-rule:nonzero;fill:rgb(96.078431%,82.352941%,66.27451%);fill-opacity:1;" d="M 81.875 155.128906 L 80.910156 158.242188 L 70.007812 154.863281 L 70.972656 151.746094 L 81.875 155.128906 "/>
<path style=" stroke:none;fill-rule:nonzero;fill:rgb(80.392157%,56.078431%,30.980392%);fill-opacity:1;" d="M 71.070312 103.144531 L 92.265625 103.144531 L 92.265625 104.777344 L 71.070312 104.777344 L 71.070312 103.144531 M 66.179688 108.691406 L 66.179688 104.777344 L 71.070312 104.777344 L 71.070312 108.691406 L 66.179688 108.691406 "/>
<path style=" stroke:none;fill-rule:nonzero;fill:rgb(73.333333%,50.196078%,26.666667%);fill-opacity:1;" d="M 71.070312 104.777344 L 92.265625 104.777344 L 92.265625 125.160156 L 88.191406 120.265625 L 88.191406 114.558594 L 82.484375 114.558594 L 82.484375 117.003906 L 78.40625 116.191406 L 78.40625 109.667969 L 71.070312 108.691406 L 71.070312 104.777344 "/>
<path style=" stroke:none;fill-rule:nonzero;fill:rgb(98.823529%,85.882353%,70.588235%);fill-opacity:1;" d="M 92.265625 125.160156 L 92.265625 129.234375 L 71.070312 129.234375 L 71.070312 108.691406 L 78.40625 109.667969 L 78.40625 116.191406 L 82.484375 117.003906 L 82.484375 114.558594 L 88.191406 114.558594 L 88.191406 120.265625 L 92.265625 125.160156 "/>
<path style=" stroke:none;fill-rule:nonzero;fill:rgb(85.098039%,61.568627%,37.254902%);fill-opacity:1;" d="M 71.070312 103.144531 L 71.070312 104.777344 L 66.179688 104.777344 L 66.179688 103.144531 L 71.070312 103.144531 "/>
<path style=" stroke:none;fill-rule:nonzero;fill:rgb(100%,90.980392%,80.392157%);fill-opacity:1;" d="M 71.070312 129.234375 L 66.179688 129.234375 L 66.179688 108.691406 L 71.070312 108.691406 L 71.070312 129.234375 "/>
<path style=" stroke:none;fill-rule:nonzero;fill:rgb(80.392157%,56.078431%,30.980392%);fill-opacity:1;" d="M 74.332031 118.636719 L 71.070312 118.636719 L 71.070312 116.191406 L 74.332031 116.191406 L 74.332031 118.636719 "/>
<path style=" stroke:none;fill-rule:nonzero;fill:rgb(73.333333%,50.196078%,26.666667%);fill-opacity:1;" d="M 74.332031 118.636719 L 74.332031 121.082031 L 71.070312 121.082031 L 71.070312 118.636719 L 74.332031 118.636719 "/>
<path style=" stroke:none;fill-rule:nonzero;fill:rgb(96.862745%,76.078431%,51.372549%);fill-opacity:1;" d="M 66.179688 121.082031 L 71.070312 121.082031 L 71.070312 124.34375 L 66.179688 124.34375 L 66.179688 121.082031 "/>
<path style=" stroke:none;fill-rule:nonzero;fill:rgb(79.607843%,58.039216%,35.686275%);fill-opacity:1;" d="M 138.710938 133.570312 L 128.929688 133.570312 L 128.929688 131.941406 L 138.710938 131.941406 L 138.710938 133.570312 M 171.324219 133.570312 L 171.324219 131.941406 L 181.105469 131.941406 L 181.105469 133.570312 L 171.324219 133.570312 "/>
<path style=" stroke:none;fill-rule:nonzero;fill:rgb(70.588235%,48.235294%,25.490196%);fill-opacity:1;" d="M 171.324219 133.570312 L 176.621094 133.570312 L 176.050781 148.574219 L 171.324219 148.410156 L 171.324219 133.570312 M 181.105469 133.570312 L 181.105469 171.929688 L 175.765625 171.929688 L 175.808594 171.320312 L 178.988281 171.359375 L 179.761719 133.570312 L 181.105469 133.570312 M 169.652344 162.148438 L 167.003906 162.148438 L 166.71875 152.363281 L 169.691406 152.363281 L 169.691406 160.191406 L 169.652344 162.148438 M 157.421875 162.148438 L 146.660156 162.148438 L 146.089844 152.363281 L 157.136719 152.363281 L 157.421875 162.148438 M 144.011719 162.148438 L 140.34375 162.148438 L 140.34375 152.363281 L 141.035156 152.363281 L 141.199219 158.398438 L 144.132812 158.765625 L 144.011719 162.148438 M 132.027344 171.929688 L 128.929688 171.929688 L 128.929688 133.570312 L 132.433594 133.570312 L 132.761719 145.964844 L 138.710938 145.800781 L 138.710938 149.429688 L 131.375 149.632812 L 132.027344 171.929688 M 140.34375 139.320312 L 144.910156 139.320312 L 144.542969 149.101562 L 140.34375 149.101562 L 140.34375 139.320312 M 155.058594 139.320312 L 158.320312 139.320312 L 158.359375 141.722656 L 154.9375 141.96875 L 155.058594 139.320312 M 167.859375 139.320312 L 169.691406 139.320312 L 169.691406 149.101562 L 160.359375 149.101562 L 160.195312 146.984375 L 168.0625 146.738281 L 167.859375 139.320312 "/>
<path style=" stroke:none;fill-rule:nonzero;fill:rgb(76.862745%,52.54902%,27.843137%);fill-opacity:1;" d="M 167.859375 139.320312 L 168.0625 146.738281 L 160.195312 146.984375 L 158.484375 147.023438 L 158.359375 141.722656 L 158.320312 139.320312 L 167.859375 139.320312 M 171.324219 171.195312 L 171.324219 148.410156 L 176.050781 148.574219 L 176.621094 133.570312 L 179.761719 133.570312 L 178.988281 171.359375 L 175.808594 171.320312 L 171.324219 171.195312 M 169.691406 162.148438 L 169.652344 162.148438 L 169.691406 160.191406 L 169.691406 162.148438 M 167.003906 162.148438 L 164.597656 162.148438 L 164.921875 153.21875 L 159.828125 153.015625 L 159.503906 162.148438 L 157.421875 162.148438 L 157.136719 152.363281 L 166.71875 152.363281 L 167.003906 162.148438 M 146.660156 162.148438 L 144.011719 162.148438 L 144.132812 158.765625 L 144.417969 152.363281 L 146.089844 152.363281 L 146.660156 162.148438 M 138.710938 162.148438 L 138.710938 171.929688 L 132.027344 171.929688 L 131.375 149.632812 L 138.710938 149.429688 L 138.710938 162.148438 M 144.910156 139.320312 L 155.058594 139.320312 L 154.9375 141.96875 L 154.652344 149.101562 L 150.980469 149.101562 L 150.777344 145.515625 L 145.683594 145.800781 L 145.886719 149.101562 L 144.542969 149.101562 L 144.910156 139.320312 M 134.796875 133.570312 L 134.636719 143.109375 L 138.710938 143.234375 L 138.710938 145.800781 L 132.761719 145.964844 L 132.433594 133.570312 L 134.796875 133.570312 "/>
<path style=" stroke:none;fill-rule:nonzero;fill:rgb(81.568627%,55.686275%,29.019608%);fill-opacity:1;" d="M 150.980469 149.101562 L 145.886719 149.101562 L 145.683594 145.800781 L 150.777344 145.515625 L 150.980469 149.101562 "/>
<path style=" stroke:none;fill-rule:nonzero;fill:rgb(66.666667%,45.490196%,23.921569%);fill-opacity:1;" d="M 175.765625 171.929688 L 171.324219 171.929688 L 171.324219 171.195312 L 175.808594 171.320312 L 175.765625 171.929688 M 154.9375 141.96875 L 158.359375 141.722656 L 158.484375 147.023438 L 160.195312 146.984375 L 160.359375 149.101562 L 154.652344 149.101562 L 154.9375 141.96875 M 141.035156 152.363281 L 144.417969 152.363281 L 144.132812 158.765625 L 141.199219 158.398438 L 141.035156 152.363281 "/>
<path style=" stroke:none;fill-rule:nonzero;fill:rgb(60.392157%,42.352941%,24.313725%);fill-opacity:1;" d="M 171.324219 162.148438 L 169.691406 162.148438 L 169.691406 152.363281 L 171.324219 152.363281 L 171.324219 162.148438 M 140.34375 162.148438 L 138.710938 162.148438 L 138.710938 152.363281 L 140.34375 152.363281 L 140.34375 162.148438 M 138.710938 139.320312 L 140.34375 139.320312 L 140.34375 149.101562 L 138.710938 149.101562 L 138.710938 139.320312 M 169.691406 139.320312 L 171.324219 139.320312 L 171.324219 149.101562 L 169.691406 149.101562 L 169.691406 139.320312 "/>
<path style=" stroke:none;fill-rule:nonzero;fill:rgb(79.607843%,54.509804%,28.627451%);fill-opacity:1;" d="M 164.597656 162.148438 L 159.503906 162.148438 L 159.828125 153.015625 L 164.921875 153.21875 L 164.597656 162.148438 M 138.710938 133.570312 L 138.710938 143.234375 L 134.636719 143.109375 L 134.796875 133.570312 L 138.710938 133.570312 "/>
<path style=" stroke:none;fill-rule:nonzero;fill:rgb(62.745098%,76.078431%,76.862745%);fill-opacity:1;" d="M 20.445312 140.566406 L 20.445312 138.933594 L 55.460938 138.933594 L 55.460938 140.566406 L 20.445312 140.566406 "/>
<path style=" stroke:none;fill-rule:nonzero;fill:rgb(41.960784%,50.588235%,51.372549%);fill-opacity:1;" d="M 48.246094 160.539062 L 48.246094 163.351562 L 27.660156 163.351562 L 27.660156 160.539062 L 48.246094 160.539062 "/>
<path style=" stroke:none;fill-rule:nonzero;fill:rgb(49.019608%,58.823529%,59.607843%);fill-opacity:1;" d="M 54.363281 146.148438 L 54.160156 147.78125 L 21.710938 147.78125 L 21.507812 146.148438 L 54.363281 146.148438 "/>
<path style=" stroke:none;fill-rule:nonzero;fill:rgb(53.72549%,64.313725%,65.098039%);fill-opacity:1;" d="M 54.160156 147.78125 L 52.570312 160.539062 L 23.339844 160.539062 L 21.710938 147.78125 L 54.160156 147.78125 "/>
<path style=" stroke:none;fill-rule:nonzero;fill:rgb(58.431373%,70.588235%,71.372549%);fill-opacity:1;" d="M 20.445312 140.566406 L 55.460938 140.566406 L 55.460938 146.148438 L 20.445312 146.148438 L 20.445312 140.566406 "/>
<path style=" stroke:none;fill-rule:nonzero;fill:rgb(62.745098%,76.078431%,76.862745%);fill-opacity:1;" d="M 30.71875 159.765625 C 29.277344 159.765625 28.054688 160.269531 27.050781 161.273438 C 26.042969 162.304688 25.542969 163.527344 25.542969 164.941406 C 25.542969 166.355469 26.042969 167.566406 27.050781 168.570312 C 28.054688 169.601562 29.277344 170.117188 30.71875 170.117188 C 32.132812 170.117188 33.339844 169.601562 34.347656 168.570312 C 35.378906 167.566406 35.894531 166.355469 35.894531 164.941406 C 35.894531 163.527344 35.378906 162.304688 34.347656 161.273438 C 33.339844 160.269531 32.132812 159.765625 30.71875 159.765625 M 30.679688 158.054688 C 32.582031 158.054688 34.199219 158.71875 35.527344 160.050781 C 36.886719 161.410156 37.566406 163.039062 37.566406 164.941406 L 37.527344 165.757812 C 37.363281 167.304688 36.699219 168.652344 35.527344 169.792969 C 34.199219 171.152344 32.582031 171.832031 30.679688 171.832031 C 28.777344 171.832031 27.144531 171.152344 25.785156 169.792969 C 24.644531 168.652344 23.992188 167.304688 23.828125 165.757812 L 23.789062 164.941406 C 23.789062 163.039062 24.453125 161.410156 25.785156 160.050781 C 27.144531 158.71875 28.777344 158.054688 30.679688 158.054688 M 38.261719 165.105469 C 38.261719 163.203125 38.925781 161.570312 40.257812 160.214844 C 41.617188 158.882812 43.246094 158.214844 45.148438 158.214844 C 47.050781 158.214844 48.667969 158.882812 50 160.214844 C 51.359375 161.570312 52.039062 163.203125 52.039062 165.105469 L 51.996094 165.921875 C 51.835938 167.46875 51.167969 168.816406 50 169.957031 C 48.667969 171.316406 47.050781 171.996094 45.148438 171.996094 C 43.246094 171.996094 41.617188 171.316406 40.257812 169.957031 C 39.117188 168.816406 38.464844 167.46875 38.300781 165.921875 L 38.261719 165.105469 M 40.011719 165.105469 C 40.011719 166.519531 40.515625 167.742188 41.519531 168.773438 C 42.527344 169.78125 43.75 170.28125 45.191406 170.28125 C 46.601562 170.28125 47.8125 169.78125 48.816406 168.773438 C 49.851562 167.742188 50.367188 166.519531 50.367188 165.105469 C 50.367188 163.691406 49.851562 162.484375 48.816406 161.476562 C 47.8125 160.445312 46.601562 159.929688 45.191406 159.929688 C 43.75 159.929688 42.527344 160.445312 41.519531 161.476562 C 40.515625 162.484375 40.011719 163.691406 40.011719 165.105469 "/>
<path style=" stroke:none;fill-rule:nonzero;fill:rgb(53.72549%,64.313725%,65.098039%);fill-opacity:1;" d="M 40.011719 165.105469 C 40.011719 163.691406 40.515625 162.484375 41.519531 161.476562 C 42.527344 160.445312 43.75 159.929688 45.191406 159.929688 C 46.601562 159.929688 47.8125 160.445312 48.816406 161.476562 C 49.851562 162.484375 50.367188 163.691406 50.367188 165.105469 C 50.367188 166.519531 49.851562 167.742188 48.816406 168.773438 C 47.8125 169.78125 46.601562 170.28125 45.191406 170.28125 C 43.75 170.28125 42.527344 169.78125 41.519531 168.773438 C 40.515625 167.742188 40.011719 166.519531 40.011719 165.105469 M 30.71875 159.765625 C 32.132812 159.765625 33.339844 160.269531 34.347656 161.273438 C 35.378906 162.304688 35.894531 163.527344 35.894531 164.941406 C 35.894531 166.355469 35.378906 167.566406 34.347656 168.570312 C 33.339844 169.601562 32.132812 170.117188 30.71875 170.117188 C 29.277344 170.117188 28.054688 169.601562 27.050781 168.570312 C 26.042969 167.566406 25.542969 166.355469 25.542969 164.941406 C 25.542969 163.527344 26.042969 162.304688 27.050781 161.273438 C 28.054688 160.269531 29.277344 159.765625 30.71875 159.765625 M 47.269531 165.105469 C 47.269531 164.5625 47.066406 164.074219 46.65625 163.636719 C 46.25 163.230469 45.761719 163.027344 45.191406 163.027344 C 44.621094 163.027344 44.128906 163.230469 43.722656 163.636719 C 43.316406 164.074219 43.109375 164.5625 43.109375 165.105469 C 43.109375 165.675781 43.316406 166.164062 43.722656 166.574219 C 44.128906 166.980469 44.621094 167.183594 45.191406 167.183594 C 45.761719 167.183594 46.25 166.980469 46.65625 166.574219 C 47.066406 166.164062 47.269531 165.675781 47.269531 165.105469 M 30.71875 167.019531 C 31.289062 167.019531 31.777344 166.816406 32.1875 166.410156 C 32.566406 166 32.757812 165.511719 32.757812 164.941406 C 32.757812 164.398438 32.566406 163.910156 32.1875 163.472656 C 31.777344 163.066406 31.289062 162.863281 30.71875 162.863281 C 30.148438 162.863281 29.660156 163.066406 29.25 163.472656 C 28.84375 163.910156 28.640625 164.398438 28.640625 164.941406 C 28.640625 165.511719 28.84375 166 29.25 166.410156 C 29.660156 166.816406 30.148438 167.019531 30.71875 167.019531 "/>
<path style=" stroke:none;fill-rule:nonzero;fill:rgb(41.960784%,50.588235%,51.372549%);fill-opacity:1;" d="M 30.71875 167.019531 C 30.148438 167.019531 29.660156 166.816406 29.25 166.410156 C 28.84375 166 28.640625 165.511719 28.640625 164.941406 C 28.640625 164.398438 28.84375 163.910156 29.25 163.472656 C 29.660156 163.066406 30.148438 162.863281 30.71875 162.863281 C 31.289062 162.863281 31.777344 163.066406 32.1875 163.472656 C 32.566406 163.910156 32.757812 164.398438 32.757812 164.941406 C 32.757812 165.511719 32.566406 166 32.1875 166.410156 C 31.777344 166.816406 31.289062 167.019531 30.71875 167.019531 M 47.269531 165.105469 C 47.269531 165.675781 47.066406 166.164062 46.65625 166.574219 C 46.25 166.980469 45.761719 167.183594 45.191406 167.183594 C 44.621094 167.183594 44.128906 166.980469 43.722656 166.574219 C 43.316406 166.164062 43.109375 165.675781 43.109375 165.105469 C 43.109375 164.5625 43.316406 164.074219 43.722656 163.636719 C 44.128906 163.230469 44.621094 163.027344 45.191406 163.027344 C 45.761719 163.027344 46.25 163.230469 46.65625 163.636719 C 47.066406 164.074219 47.269531 164.5625 47.269531 165.105469 "/>
<path style=" stroke:none;fill-rule:nonzero;fill:rgb(58.431373%,70.588235%,71.372549%);fill-opacity:1;" d="M 23.707031 150.347656 C 23.707031 150.132812 23.789062 149.941406 23.953125 149.777344 C 24.113281 149.613281 24.304688 149.53125 24.523438 149.53125 C 24.738281 149.53125 24.929688 149.613281 25.09375 149.777344 L 25.339844 150.347656 L 25.09375 150.917969 L 24.523438 151.164062 L 23.953125 150.917969 C 23.789062 150.757812 23.707031 150.566406 23.707031 150.347656 "/>
<path style=" stroke:none;fill-rule:nonzero;fill:rgb(58.431373%,70.588235%,71.372549%);fill-opacity:1;" d="M 25.339844 153.609375 L 25.910156 153.855469 L 26.152344 154.425781 L 25.910156 154.996094 L 25.339844 155.238281 C 25.121094 155.238281 24.929688 155.160156 24.765625 154.996094 C 24.605469 154.832031 24.523438 154.640625 24.523438 154.425781 C 24.523438 154.207031 24.605469 154.015625 24.765625 153.855469 C 24.929688 153.691406 25.121094 153.609375 25.339844 153.609375 "/>
<path style=" stroke:none;fill-rule:nonzero;fill:rgb(58.431373%,70.588235%,71.372549%);fill-opacity:1;" d="M 51.996094 149.777344 L 52.242188 150.347656 L 51.996094 150.917969 L 51.425781 151.164062 C 51.210938 151.164062 51.019531 151.082031 50.855469 150.917969 C 50.695312 150.757812 50.613281 150.566406 50.613281 150.347656 C 50.613281 150.132812 50.695312 149.941406 50.855469 149.777344 C 51.019531 149.613281 51.210938 149.53125 51.425781 149.53125 C 51.644531 149.53125 51.835938 149.613281 51.996094 149.777344 "/>
<path style=" stroke:none;fill-rule:nonzero;fill:rgb(58.431373%,70.588235%,71.372549%);fill-opacity:1;" d="M 50.042969 153.855469 C 50.203125 153.691406 50.394531 153.609375 50.613281 153.609375 C 50.828125 153.609375 51.019531 153.691406 51.183594 153.855469 L 51.425781 154.425781 L 51.183594 154.996094 C 51.019531 155.160156 50.828125 155.238281 50.613281 155.238281 L 50.042969 154.996094 L 49.796875 154.425781 C 49.796875 154.207031 49.878906 154.015625 50.042969 153.855469 "/>
</g>
</svg>
